# xmcd
#
# Track frame offsets: 
#        150
#        10675
#        22737
#        34126
#        43105
#        55611
#        69939
#        81691
#        92305
#        101939
#        112099
#        125886
#        135946
#        147930
#        159878
#        168944
#        180916
#        192345
#        204314
#        215436
#        225757
#        235836
#        247854
#        259240
#        270949
#        283232
#
# Disc length: 3984 seconds
#
# Revision: 0
# Processed by: cddbd v1.5.2PL0 Copyright (c) Steve Scherf et al.
# Submitted via: ExactAudioCopy v0.99pb5
#
DISCID=560f8e1a
DTITLE=Various Artist - The Old Town and Barry Soul Survey
DYEAR=1900
DGENRE=Soul
TTITLE0=Freddie Houston - If I Had Know
TTITLE1=Rosco and Barbara - Could This Be Love
TTITLE2=Thelma Jones  - Souvenirs Of A Heartbreak
TTITLE3=Jesse Johnson - Left Out
TTITLE4=Bobby Long and The Dealers - I Gotta Have Love Too
TTITLE5=Charlie Thomas - No One Home To Come Home To
TTITLE6=Donald Height - You Can't Trust Your Best Friend
TTITLE7=Billy Bland - All I Wanna Do Is Cry
TTITLE8=The Sparkels - Try Love (One More Time)
TTITLE9=Beverly McKay - Say It With Feeling
TTITLE10=Lester Young - Let Your Love Shine
TTITLE11=The Fiestas - Think Smart
TTITLE12=Frank Howard and The Commanders - I'm So Glad
TTITLE13=The Gypsies - It's A Womans World (You Better Believe It)
TTITLE14=Lorraine and The Delights  - Baby I Need You
TTITLE15=King Ernest - Hold It Baby
TTITLE16=Buddy and Ella Johnson - Keep On Loving You
TTITLE17=Jesse Gee - Baby, I Need You
TTITLE18=Mark IV's Featuring Sam Fain - The Tide Has Turned
TTITLE19=John Strandberry Jr - Lonely Man
TTITLE20=Billy Bland - You Took My Love For Granted
TTITLE21=Billy Profit - Slowly I Turn
TTITLE22=The Devine Men - Stop And Take Another Look
TTITLE23=Irene Reid - I Must Be Doing Something Right
TTITLE24=Thelma Jones - Second Chance
TTITLE25=Peggy Scott - Things Have More Meaning Now
EXTD=
EXTT0=
EXTT1=
EXTT2=
EXTT3=
EXTT4=
EXTT5=
EXTT6=
EXTT7=
EXTT8=
EXTT9=
EXTT10=
EXTT11=
EXTT12=
EXTT13=
EXTT14=
EXTT15=
EXTT16=
EXTT17=
EXTT18=
EXTT19=
EXTT20=
EXTT21=
EXTT22=
EXTT23=
EXTT24=
EXTT25=
PLAYORDER=
